<?xml version="1.0" encoding="utf-8"?>
<!-- Generator: Adobe Illustrator 26.0.1, SVG Export Plug-In . SVG Version: 6.00 Build 0)  -->
<svg version="1.1" id="Layer_1" xmlns="http://www.w3.org/2000/svg" xmlns:xlink="http://www.w3.org/1999/xlink" x="0px" y="0px"
	 viewBox="0 0 150 132" style="enable-background:new 0 0 150 132;" xml:space="preserve">
<style type="text/css">
	.st0{fill:#172950;}
	.st1{fill:#FEFEFE;}
</style>
<g>
	<path class="st0" d="M141,28c0,25.4,0,50.8,0,76.2c-0.3,0.5-0.2,1.1-0.3,1.7c-1.1,7.2-4.3,13.3-9.7,18.2c-5.8,5.2-12.6,8-20.4,8
		c-23.9,0-47.8,0-71.7,0c-1.6,0-3.1-0.2-4.6-0.4c-6.5-1.2-12.1-4.1-16.7-8.9c-5.5-5.8-8.5-12.7-8.6-20.8C9,78.2,9,54.4,9,30.7
		c0-2.6,0.3-5.1,0.9-7.6c2.8-11.7,13-21,24.8-22.7C35.5,0.3,36.3,0.3,37,0c25.3,0,50.6,0,75.9,0c0,0.1,0.1,0.1,0.2,0.1
		c1.6,0.1,3.2,0.4,4.8,0.8c11.7,2.8,20.9,13,22.7,24.8C140.8,26.5,140.7,27.3,141,28z M96.4,92.3c0,6,0,12,0,18
		c0,0.6-0.3,1.4,0.1,1.7c0.4,0.3,1.2,0.1,1.8,0c7-0.9,12.5-7,12.5-14.1c0-1.6,0-3.2,0-4.8c0-9.5,0-18.9,0-28.4c0-0.3,0-0.6-0.4-0.9
		c-11.7-6.7-23.3-13.5-35-20.2c-0.3-0.2-0.6-0.2-0.9,0c-5.1,3-10.2,5.9-15.4,8.9c-0.3,0.2-0.4,0.4-0.4,0.8c0,0.9,0,1.8,0,2.8
		c0,0.4,0.1,0.6,0.5,0.8c3.4,2,6.8,3.9,10.2,5.9c0.4,0.2,0.6,0.2,0.9,0c1.3-0.8,2.7-1.5,4-2.3c0.4-0.3,0.7-0.3,1.2,0
		c6.8,3.9,13.6,7.9,20.4,11.8c0.4,0.2,0.4,0.5,0.4,0.8C96.4,79.4,96.4,85.9,96.4,92.3z M53.6,39.7c0-6.4,0-12.8,0-19.3
		c0-0.5-0.1-0.7-0.6-0.6c-1,0-1.9,0.2-2.9,0.4c-6.4,1.6-10.9,7.2-10.9,13.3c-0.1,11.3,0,22.6,0,34c0,0.4,0.1,0.5,0.4,0.7
		c11.7,6.7,23.3,13.5,35,20.2c0.3,0.2,0.6,0.2,0.9,0c5.1-3,10.3-5.9,15.4-8.9c0.3-0.2,0.4-0.4,0.4-0.7c0-0.9,0-1.9,0-2.8
		c0-0.4-0.1-0.6-0.5-0.8c-3.4-2-6.9-3.9-10.3-5.9c-0.3-0.2-0.6-0.2-0.9,0c-1.3,0.8-2.7,1.6-4.1,2.4c-0.4,0.2-0.7,0.3-1.1,0
		c-6.8-3.9-13.6-7.9-20.4-11.8c-0.4-0.2-0.4-0.5-0.4-0.9C53.6,52.5,53.6,46.1,53.6,39.7z M110.8,58.1c0-0.4,0-0.6,0-0.8
		c0-9,0-18,0-27c0-3.3,0-6.6,0-9.9c0-0.4-0.1-0.6-0.5-0.6c-1,0-2,0.2-2.9,0.4c-6.4,1.6-10.8,7.2-10.9,13.3c-0.1,5.2,0,10.5,0,15.7
		c0,0.4,0.1,0.6,0.5,0.7c2.9,1.7,5.8,3.3,8.7,5C107.3,56,109,57,110.8,58.1z M39.2,73.9c0,0.3,0,0.4,0,0.6c0,12.4,0,24.7,0,37.1
		c0,0.1,0,0.1,0,0.2c0,0.3,0.1,0.4,0.4,0.4c1,0,2-0.2,3.1-0.4c6.4-1.5,11-7.4,11-13.9c0-5,0-10,0-15.1c0-0.4-0.1-0.6-0.5-0.9
		c-2.2-1.2-4.3-2.5-6.5-3.7C44.2,76.8,41.7,75.4,39.2,73.9z"/>
	<path class="st1" d="M96.4,92.3c0-6.4,0-12.8,0-19.3c0-0.4-0.1-0.6-0.4-0.8c-6.8-3.9-13.6-7.8-20.4-11.8c-0.4-0.3-0.7-0.3-1.2,0
		c-1.3,0.8-2.7,1.5-4,2.3c-0.3,0.2-0.6,0.2-0.9,0c-3.4-2-6.8-4-10.2-5.9c-0.4-0.2-0.5-0.4-0.5-0.8c0-0.9,0-1.8,0-2.8
		c0-0.4,0.1-0.6,0.4-0.8c5.1-2.9,10.2-5.9,15.4-8.9c0.3-0.2,0.6-0.2,0.9,0c11.7,6.7,23.3,13.5,35,20.2c0.4,0.2,0.4,0.5,0.4,0.9
		c0,9.5,0,18.9,0,28.4c0,1.6,0,3.2,0,4.8c0,7.1-5.5,13.2-12.5,14.1c-0.6,0.1-1.4,0.4-1.8,0c-0.4-0.3-0.1-1.1-0.1-1.7
		C96.4,104.3,96.4,98.3,96.4,92.3z"/>
	<path class="st1" d="M53.6,39.7c0,6.4,0,12.8,0,19.2c0,0.4,0.1,0.7,0.4,0.9c6.8,3.9,13.6,7.8,20.4,11.8c0.4,0.2,0.7,0.2,1.1,0
		c1.3-0.8,2.7-1.6,4.1-2.4c0.3-0.2,0.5-0.2,0.9,0c3.4,2,6.9,4,10.3,5.9c0.3,0.2,0.5,0.4,0.5,0.8c0,0.9,0,1.9,0,2.8
		c0,0.3-0.1,0.5-0.4,0.7c-5.1,3-10.3,5.9-15.4,8.9c-0.3,0.2-0.6,0.2-0.9,0c-11.7-6.7-23.3-13.5-35-20.2c-0.3-0.2-0.4-0.3-0.4-0.7
		c0-11.3-0.1-22.6,0-34c0.1-6.1,4.5-11.7,10.9-13.3c0.9-0.2,1.9-0.4,2.9-0.4c0.5,0,0.6,0.1,0.6,0.6C53.6,26.9,53.6,33.3,53.6,39.7z"
		/>
	<path class="st1" d="M110.8,58.1c-1.8-1.1-3.5-2.1-5.3-3c-2.9-1.7-5.8-3.4-8.7-5c-0.3-0.2-0.5-0.4-0.5-0.7c0-5.2-0.1-10.5,0-15.7
		c0.2-6.1,4.5-11.7,10.9-13.3c1-0.2,1.9-0.4,2.9-0.4c0.5,0,0.6,0.1,0.5,0.6c0,3.3,0,6.6,0,9.9c0,9,0,18,0,27
		C110.8,57.5,110.8,57.7,110.8,58.1z"/>
	<path class="st1" d="M39.2,73.9c2.6,1.5,5,2.9,7.4,4.3c2.2,1.3,4.3,2.5,6.5,3.7c0.4,0.2,0.5,0.4,0.5,0.9c0,5,0,10,0,15.1
		c0,6.5-4.6,12.4-11,13.9c-1,0.2-2,0.4-3.1,0.4c-0.3,0-0.4-0.1-0.4-0.4c0-0.1,0-0.1,0-0.2c0-12.4,0-24.7,0-37.1
		C39.2,74.3,39.2,74.2,39.2,73.9z"/>
</g>
</svg>
